<svg width="300" height="60" viewBox="0 0 300 60" fill="none" xmlns="http://www.w3.org/2000/svg">
<rect x="0.5" y="0.5" width="299" height="59" rx="11.5" fill="#F8C77A"/>
<rect x="0.5" y="0.5" width="299" height="59" rx="11.5" stroke="#602B1D" stroke-dasharray="12 12"/>
<path d="M63.806 36.662C62.93 36.662 62.144 36.476 61.448 36.104C60.752 35.72 60.206 35.192 59.81 34.52L60.782 33.926C61.082 34.454 61.49 34.862 62.006 35.15C62.522 35.438 63.116 35.582 63.788 35.582C64.7 35.582 65.42 35.348 65.948 34.88C66.488 34.4 66.758 33.764 66.758 32.972C66.758 32.468 66.644 32.024 66.416 31.64C66.2 31.244 65.888 30.938 65.48 30.722C65.072 30.506 64.58 30.398 64.004 30.398H62.78V29.39H64.022C64.466 29.39 64.856 29.288 65.192 29.084C65.528 28.868 65.792 28.586 65.984 28.238C66.176 27.89 66.272 27.5 66.272 27.068C66.272 26.6 66.164 26.192 65.948 25.844C65.744 25.496 65.45 25.22 65.066 25.016C64.694 24.812 64.256 24.71 63.752 24.71C63.14 24.71 62.6 24.848 62.132 25.124C61.664 25.4 61.292 25.784 61.016 26.276L60.098 25.664C60.47 25.004 60.962 24.488 61.574 24.116C62.198 23.744 62.942 23.558 63.806 23.558C64.538 23.558 65.174 23.702 65.714 23.99C66.266 24.266 66.698 24.656 67.01 25.16C67.334 25.652 67.496 26.234 67.496 26.906C67.496 27.554 67.334 28.142 67.01 28.67C66.698 29.186 66.242 29.576 65.642 29.84C66.398 30.044 66.98 30.44 67.388 31.028C67.808 31.616 68.018 32.3 68.018 33.08C68.018 33.824 67.838 34.466 67.478 35.006C67.118 35.534 66.62 35.942 65.984 36.23C65.36 36.518 64.634 36.662 63.806 36.662ZM69.4026 33.8C69.4026 33.212 69.5706 32.708 69.9066 32.288C70.2426 31.856 70.7046 31.526 71.2926 31.298C71.8926 31.058 72.5826 30.938 73.3626 30.938C73.8186 30.938 74.2926 30.974 74.7846 31.046C75.2766 31.118 75.7146 31.226 76.0986 31.37V30.578C76.0986 29.786 75.8646 29.156 75.3966 28.688C74.9286 28.22 74.2806 27.986 73.4526 27.986C72.9486 27.986 72.4506 28.082 71.9586 28.274C71.4786 28.454 70.9746 28.724 70.4466 29.084L69.9786 28.22C70.5906 27.8 71.1906 27.488 71.7786 27.284C72.3666 27.068 72.9666 26.96 73.5786 26.96C74.7306 26.96 75.6426 27.29 76.3146 27.95C76.9866 28.61 77.3226 29.522 77.3226 30.686V35.024C77.3226 35.192 77.3586 35.318 77.4306 35.402C77.5026 35.474 77.6166 35.516 77.7726 35.528V36.5C77.6406 36.512 77.5266 36.524 77.4306 36.536C77.3346 36.548 77.2626 36.548 77.2146 36.536C76.9146 36.524 76.6866 36.428 76.5306 36.248C76.3746 36.068 76.2906 35.876 76.2786 35.672L76.2606 34.988C75.8406 35.528 75.2946 35.948 74.6226 36.248C73.9506 36.536 73.2666 36.68 72.5706 36.68C71.9706 36.68 71.4246 36.554 70.9326 36.302C70.4526 36.038 70.0746 35.69 69.7986 35.258C69.5346 34.814 69.4026 34.328 69.4026 33.8ZM75.6846 34.52C75.8166 34.352 75.9186 34.19 75.9906 34.034C76.0626 33.878 76.0986 33.74 76.0986 33.62V32.252C75.6906 32.096 75.2646 31.976 74.8206 31.892C74.3886 31.808 73.9506 31.766 73.5066 31.766C72.6306 31.766 71.9226 31.94 71.3826 32.288C70.8426 32.636 70.5726 33.11 70.5726 33.71C70.5726 34.058 70.6626 34.388 70.8426 34.7C71.0226 35 71.2866 35.252 71.6346 35.456C71.9826 35.648 72.3906 35.744 72.8586 35.744C73.4466 35.744 73.9926 35.63 74.4966 35.402C75.0126 35.174 75.4086 34.88 75.6846 34.52ZM79.9492 36.5V27.122H87.4912V36.5H86.2672V28.22H81.1732V36.5H79.9492ZM90.1797 36.5V27.14H91.4037V34.844L97.1097 27.122H98.2077V36.5H96.9837V28.922L91.3677 36.5H90.1797ZM104.953 36.68C104.269 36.68 103.639 36.554 103.063 36.302C102.499 36.038 102.001 35.678 101.569 35.222C101.149 34.766 100.819 34.244 100.579 33.656C100.351 33.068 100.237 32.444 100.237 31.784C100.237 30.896 100.435 30.086 100.831 29.354C101.227 28.622 101.779 28.04 102.487 27.608C103.195 27.176 104.011 26.96 104.935 26.96C105.811 26.96 106.585 27.164 107.257 27.572C107.929 27.968 108.427 28.508 108.751 29.192L107.563 29.57C107.299 29.09 106.927 28.718 106.447 28.454C105.979 28.178 105.457 28.04 104.881 28.04C104.257 28.04 103.687 28.202 103.171 28.526C102.655 28.85 102.241 29.294 101.929 29.858C101.629 30.422 101.479 31.064 101.479 31.784C101.479 32.492 101.635 33.134 101.947 33.71C102.259 34.286 102.673 34.748 103.189 35.096C103.705 35.432 104.275 35.6 104.899 35.6C105.307 35.6 105.697 35.528 106.069 35.384C106.453 35.24 106.783 35.048 107.059 34.808C107.347 34.556 107.539 34.286 107.635 33.998L108.841 34.358C108.673 34.802 108.391 35.204 107.995 35.564C107.611 35.912 107.155 36.188 106.627 36.392C106.111 36.584 105.553 36.68 104.953 36.68ZM110.008 33.8C110.008 33.212 110.176 32.708 110.512 32.288C110.848 31.856 111.31 31.526 111.898 31.298C112.498 31.058 113.188 30.938 113.968 30.938C114.424 30.938 114.898 30.974 115.39 31.046C115.882 31.118 116.32 31.226 116.704 31.37V30.578C116.704 29.786 116.47 29.156 116.002 28.688C115.534 28.22 114.886 27.986 114.058 27.986C113.554 27.986 113.056 28.082 112.564 28.274C112.084 28.454 111.58 28.724 111.052 29.084L110.584 28.22C111.196 27.8 111.796 27.488 112.384 27.284C112.972 27.068 113.572 26.96 114.184 26.96C115.336 26.96 116.248 27.29 116.92 27.95C117.592 28.61 117.928 29.522 117.928 30.686V35.024C117.928 35.192 117.964 35.318 118.036 35.402C118.108 35.474 118.222 35.516 118.378 35.528V36.5C118.246 36.512 118.132 36.524 118.036 36.536C117.94 36.548 117.868 36.548 117.82 36.536C117.52 36.524 117.292 36.428 117.136 36.248C116.98 36.068 116.896 35.876 116.884 35.672L116.866 34.988C116.446 35.528 115.9 35.948 115.228 36.248C114.556 36.536 113.872 36.68 113.176 36.68C112.576 36.68 112.03 36.554 111.538 36.302C111.058 36.038 110.68 35.69 110.404 35.258C110.14 34.814 110.008 34.328 110.008 33.8ZM116.29 34.52C116.422 34.352 116.524 34.19 116.596 34.034C116.668 33.878 116.704 33.74 116.704 33.62V32.252C116.296 32.096 115.87 31.976 115.426 31.892C114.994 31.808 114.556 31.766 114.112 31.766C113.236 31.766 112.528 31.94 111.988 32.288C111.448 32.636 111.178 33.11 111.178 33.71C111.178 34.058 111.268 34.388 111.448 34.7C111.628 35 111.892 35.252 112.24 35.456C112.588 35.648 112.996 35.744 113.464 35.744C114.052 35.744 114.598 35.63 115.102 35.402C115.618 35.174 116.014 34.88 116.29 34.52ZM122.772 36.5V28.22H119.424V27.122H127.344V28.22H123.996V36.5H122.772ZM128.992 36.5V27.122H130.216V30.434H132.646C133.714 30.434 134.518 30.71 135.058 31.262C135.61 31.802 135.886 32.516 135.886 33.404C135.886 33.98 135.766 34.502 135.526 34.97C135.286 35.438 134.932 35.81 134.464 36.086C134.008 36.362 133.432 36.5 132.736 36.5H128.992ZM130.216 35.528H132.574C133.066 35.528 133.462 35.432 133.762 35.24C134.062 35.036 134.284 34.778 134.428 34.466C134.572 34.142 134.644 33.794 134.644 33.422C134.644 33.062 134.578 32.732 134.446 32.432C134.326 32.12 134.11 31.874 133.798 31.694C133.498 31.502 133.078 31.406 132.538 31.406H130.216V35.528ZM141.867 36.68C141.183 36.68 140.553 36.554 139.977 36.302C139.413 36.038 138.915 35.678 138.483 35.222C138.063 34.766 137.733 34.244 137.493 33.656C137.265 33.068 137.151 32.444 137.151 31.784C137.151 30.896 137.349 30.086 137.745 29.354C138.141 28.622 138.693 28.04 139.401 27.608C140.109 27.176 140.925 26.96 141.849 26.96C142.725 26.96 143.499 27.164 144.171 27.572C144.843 27.968 145.341 28.508 145.665 29.192L144.477 29.57C144.213 29.09 143.841 28.718 143.361 28.454C142.893 28.178 142.371 28.04 141.795 28.04C141.171 28.04 140.601 28.202 140.085 28.526C139.569 28.85 139.155 29.294 138.843 29.858C138.543 30.422 138.393 31.064 138.393 31.784C138.393 32.492 138.549 33.134 138.861 33.71C139.173 34.286 139.587 34.748 140.103 35.096C140.619 35.432 141.189 35.6 141.813 35.6C142.221 35.6 142.611 35.528 142.983 35.384C143.367 35.24 143.697 35.048 143.973 34.808C144.261 34.556 144.453 34.286 144.549 33.998L145.755 34.358C145.587 34.802 145.305 35.204 144.909 35.564C144.525 35.912 144.069 36.188 143.541 36.392C143.025 36.584 142.467 36.68 141.867 36.68ZM146.906 36.5L149.696 32.666C149.06 32.57 148.544 32.294 148.148 31.838C147.764 31.37 147.572 30.734 147.572 29.93C147.572 29.39 147.698 28.91 147.95 28.49C148.202 28.07 148.556 27.734 149.012 27.482C149.48 27.23 150.026 27.104 150.65 27.104H154.232V36.5H153.008V32.864H150.92L148.274 36.5H146.906ZM150.632 31.928H153.008V28.076H150.848C150.224 28.076 149.726 28.256 149.354 28.616C148.982 28.964 148.796 29.408 148.796 29.948C148.796 30.5 148.946 30.968 149.246 31.352C149.558 31.736 150.02 31.928 150.632 31.928ZM161.494 36.5V27.122H162.718V31.154H168.082V27.122H169.306V36.5H168.082V32.252H162.718V36.5H161.494ZM171.25 33.8C171.25 33.212 171.418 32.708 171.754 32.288C172.09 31.856 172.552 31.526 173.14 31.298C173.74 31.058 174.43 30.938 175.21 30.938C175.666 30.938 176.14 30.974 176.632 31.046C177.124 31.118 177.562 31.226 177.946 31.37V30.578C177.946 29.786 177.712 29.156 177.244 28.688C176.776 28.22 176.128 27.986 175.3 27.986C174.796 27.986 174.298 28.082 173.806 28.274C173.326 28.454 172.822 28.724 172.294 29.084L171.826 28.22C172.438 27.8 173.038 27.488 173.626 27.284C174.214 27.068 174.814 26.96 175.426 26.96C176.578 26.96 177.49 27.29 178.162 27.95C178.834 28.61 179.17 29.522 179.17 30.686V35.024C179.17 35.192 179.206 35.318 179.278 35.402C179.35 35.474 179.464 35.516 179.62 35.528V36.5C179.488 36.512 179.374 36.524 179.278 36.536C179.182 36.548 179.11 36.548 179.062 36.536C178.762 36.524 178.534 36.428 178.378 36.248C178.222 36.068 178.138 35.876 178.126 35.672L178.108 34.988C177.688 35.528 177.142 35.948 176.47 36.248C175.798 36.536 175.114 36.68 174.418 36.68C173.818 36.68 173.272 36.554 172.78 36.302C172.3 36.038 171.922 35.69 171.646 35.258C171.382 34.814 171.25 34.328 171.25 33.8ZM177.532 34.52C177.664 34.352 177.766 34.19 177.838 34.034C177.91 33.878 177.946 33.74 177.946 33.62V32.252C177.538 32.096 177.112 31.976 176.668 31.892C176.236 31.808 175.798 31.766 175.354 31.766C174.478 31.766 173.77 31.94 173.23 32.288C172.69 32.636 172.42 33.11 172.42 33.71C172.42 34.058 172.51 34.388 172.69 34.7C172.87 35 173.134 35.252 173.482 35.456C173.83 35.648 174.238 35.744 174.706 35.744C175.294 35.744 175.84 35.63 176.344 35.402C176.86 35.174 177.256 34.88 177.532 34.52ZM186.385 36.5V27.122H193.927V36.5H192.703V28.22H187.609V36.5H186.385ZM201.421 36.68C200.641 36.68 199.939 36.476 199.315 36.068C198.703 35.66 198.217 35.156 197.857 34.556V40.334H196.633V27.122H197.731V28.94C198.103 28.352 198.601 27.878 199.225 27.518C199.849 27.146 200.515 26.96 201.223 26.96C201.871 26.96 202.465 27.098 203.005 27.374C203.545 27.638 204.013 27.998 204.409 28.454C204.805 28.91 205.111 29.432 205.327 30.02C205.555 30.596 205.669 31.196 205.669 31.82C205.669 32.696 205.489 33.506 205.129 34.25C204.781 34.982 204.289 35.57 203.653 36.014C203.017 36.458 202.273 36.68 201.421 36.68ZM201.079 35.6C201.595 35.6 202.057 35.498 202.465 35.294C202.873 35.078 203.221 34.79 203.509 34.43C203.809 34.07 204.037 33.668 204.193 33.224C204.349 32.768 204.427 32.3 204.427 31.82C204.427 31.316 204.337 30.836 204.157 30.38C203.989 29.924 203.743 29.522 203.419 29.174C203.095 28.826 202.723 28.55 202.303 28.346C201.883 28.142 201.427 28.04 200.935 28.04C200.623 28.04 200.299 28.1 199.963 28.22C199.627 28.34 199.303 28.514 198.991 28.742C198.691 28.958 198.439 29.204 198.235 29.48C198.031 29.756 197.905 30.05 197.857 30.362V33.242C198.049 33.686 198.307 34.088 198.631 34.448C198.955 34.796 199.327 35.078 199.747 35.294C200.179 35.498 200.623 35.6 201.079 35.6ZM207.725 36.5V27.14H208.949V34.844L214.655 27.122H215.753V36.5H214.529V28.922L208.913 36.5H207.725ZM222.48 36.68C221.808 36.68 221.184 36.554 220.608 36.302C220.032 36.038 219.534 35.684 219.114 35.24C218.694 34.784 218.364 34.262 218.124 33.674C217.896 33.086 217.782 32.456 217.782 31.784C217.782 30.908 217.98 30.104 218.376 29.372C218.784 28.64 219.342 28.058 220.05 27.626C220.758 27.182 221.562 26.96 222.462 26.96C223.386 26.96 224.19 27.182 224.874 27.626C225.57 28.07 226.116 28.658 226.512 29.39C226.908 30.11 227.106 30.902 227.106 31.766C227.106 31.862 227.106 31.958 227.106 32.054C227.106 32.138 227.1 32.204 227.088 32.252H219.06C219.12 32.924 219.306 33.524 219.618 34.052C219.942 34.568 220.356 34.982 220.86 35.294C221.376 35.594 221.934 35.744 222.534 35.744C223.146 35.744 223.722 35.588 224.262 35.276C224.814 34.964 225.198 34.556 225.414 34.052L226.476 34.34C226.284 34.784 225.99 35.186 225.594 35.546C225.198 35.906 224.73 36.188 224.19 36.392C223.662 36.584 223.092 36.68 222.48 36.68ZM219.024 31.37H225.954C225.906 30.686 225.72 30.086 225.396 29.57C225.084 29.054 224.67 28.652 224.154 28.364C223.65 28.064 223.092 27.914 222.48 27.914C221.868 27.914 221.31 28.064 220.806 28.364C220.302 28.652 219.888 29.06 219.564 29.588C219.252 30.104 219.072 30.698 219.024 31.37ZM228.977 36.5V27.122H230.237L233.963 33.584L237.707 27.122H238.913V36.5H237.743V28.958L234.359 34.826H233.567L230.147 28.958V36.5H228.977Z" fill="#602B1D"/>
</svg>
